<svg height="16" style="enable-background:new" width="16" xmlns="http://www.w3.org/2000/svg"><g style="display:inline"><path d="M471.49-78.006c3.029 0 5.531 2.474 5.531 5.5 0 1.15-.39 2.208-1 3.094l3.687 3.687a1.005 1.005 0 1 1-1.406 1.438l-3.687-3.688a5.513 5.513 0 0 1-3.125.969c-3.03 0-5.5-2.475-5.5-5.5 0-3.026 2.47-5.5 5.5-5.5zm0 2a3.483 3.483 0 0 0-3.5 3.5c0 1.945 1.552 3.5 3.5 3.5 1.947 0 3.5-1.555 3.5-3.5s-1.553-3.5-3.5-3.5z" style="color:#000;font-style:normal;font-variant:normal;font-weight:400;font-stretch:normal;font-size:medium;line-height:normal;font-family:Sans;-inkscape-font-specification:Sans;text-indent:0;text-align:start;text-decoration:none;text-decoration-line:none;letter-spacing:normal;word-spacing:normal;text-transform:none;direction:ltr;block-progression:tb;writing-mode:lr-tb;baseline-shift:baseline;text-anchor:start;display:inline;overflow:visible;visibility:visible;opacity:.5;fill:#000;fill-opacity:1;stroke:none;stroke-width:1.55467153;marker:none;enable-background:new" transform="translate(-465 79.003)"/></g></svg>