<svg viewBox="0 0 24 24" xmlns="http://www.w3.org/2000/svg"><g data-name="Layer 2"><g data-name="Layer 3"><path style="fill:none" d="M0 0h24v24H0z"/><path d="M1 12C1 4 4 1 12 1s11 3 11 11-3 11-11 11S1 20 1 12" style="fill:#fff"/><path d="M12 14.52A2.54 2.54 0 0 0 14.57 12V6.12a2.58 2.58 0 0 0-5.15 0V12A2.55 2.55 0 0 0 12 14.52z" style="fill:#4285f4"/><path d="M11.15 17.81h1.71v2.59h-1.71z" style="fill:#34a853"/><path d="M7.72 12H6a5.81 5.81 0 0 0 1.76 4.16L9 15a4.16 4.16 0 0 1-1.28-3z" style="fill:#f4b400"/><path d="M12 16.2A4.33 4.33 0 0 1 9 15l-1.24 1.15A6 6 0 0 0 12 17.88 5.93 5.93 0 0 0 18 12h-1.72A4.24 4.24 0 0 1 12 16.2z" style="fill:#ea4335"/></g></g></svg>