<svg height="72" viewBox="0 0 19.05 19.05" width="72" xmlns="http://www.w3.org/2000/svg"><g style="opacity:1"><g style="stroke-width:.349952"><path d="M172.796 38.651a.518.518 0 0 1-.518-.518.518.518 0 0 1 .518-.518.518.518 0 0 1 .519.518.518.518 0 0 1-.519.518zM172.796 42.814a.518.518 0 0 1-.518-.518.518.518 0 0 1 .518-.519.518.518 0 0 1 .519.519.518.518 0 0 1-.519.518zM172.796 40.733a.518.518 0 1 1 0-1.037.518.518 0 0 1 0 1.037zM176.985 38.651a.518.518 0 0 1-.518-.518.518.518 0 0 1 .518-.518.518.518 0 0 1 .519.518.518.518 0 0 1-.519.518zM176.985 42.814a.518.518 0 0 1-.518-.518.518.518 0 0 1 .518-.519.518.518 0 0 1 .519.519.518.518 0 0 1-.519.518zM176.985 40.733a.518.518 0 1 1 0-1.037.518.518 0 0 1 0 1.037zM174.89 38.651a.518.518 0 0 1-.518-.518.518.518 0 0 1 .519-.518.518.518 0 0 1 .518.518.518.518 0 0 1-.518.518zM174.89 40.733a.518.518 0 0 1-.518-.519.518.518 0 0 1 .519-.518.518.518 0 0 1 .518.518.518.518 0 0 1-.518.519zM174.89 42.814a.518.518 0 0 1-.518-.518.518.518 0 0 1 .519-.519.518.518 0 0 1 .518.519.518.518 0 0 1-.518.518z" style="opacity:1;fill:gray;fill-rule:evenodd;stroke:gray;stroke-width:.174976;stroke-linecap:round;stroke-linejoin:round;stroke-miterlimit:4;stroke-dasharray:none;paint-order:markers fill stroke;stop-color:#000" transform="matrix(2.85712 0 0 2.85794 -490.16 -105.405)"/></g></g></svg>