<svg id="Capa_1" style="enable-background:new 0 0 150 150" version="1.1" viewBox="0 0 150 150" xml:space="preserve" xmlns="http://www.w3.org/2000/svg"><style></style><path d="M94.3 43.6c6.6 0 12.1 5.4 12.1 12.1v9.7h12.1v-9.7c0-13.3-10.8-24.2-24.2-24.2h-9.7v12.1h9.7z" style="fill:#fbc02d"/><path d="M43.6 55.7c0-6.6 5.4-12.1 12.1-12.1h9.7V31.5h-9.7c-13.3 0-24.2 10.8-24.2 24.2v9.7h12.1v-9.7z" style="fill:#e53935"/><path d="M55.7 106.4c-6.6 0-12.1-5.4-12.1-12.1v-9.7H31.5v9.7c0 13.3 10.8 24.2 24.2 24.2h9.7v-12.1h-9.7z" style="fill:#1a73e8"/><circle cx="75" cy="75" id="XMLID_3_" r="16.9" style="fill:#1e88e5"/><circle cx="104" cy="104" r="9.7" style="fill:#4caf50"/></svg>