<svg xmlns="http://www.w3.org/2000/svg" viewBox="0 0 16 16" style="enable-background:new 0 0 16 16" xml:space="preserve"><path style="fill:#030104" d="M14.999 3H1.001C.448 3 0 3.456 0 3.995v8.01c0 .55.444.995 1.001.995h13.998c.553 0 1.001-.456 1.001-.995v-8.01A.995.995 0 0 0 14.999 3zM12 5h1v1h-1V5zm0 2h1v1h-1V7zm-2-2h1v1h-1V5zm0 2h1v1h-1V7zM8 5h1v1H8V5zm2 4v1H9V9h1zM8 7h1v1H8V7zM6 5h1v1H6V5zm2 4v1H7V9h1zM6 7h1v1H6V7zM4 5h1v1H4V5zm2 4v1H5V9h1zM1 5h2v1H1V5zm0 2h2v1H1V7zm1 5H1v-1h1v1zm0-2H1V9h1v1zm2 2H3v-1h1v1zm0-2H3V9h1v1zm0-3h1v1H4V7zm7 5H5v-1h6v1zm0-3h1v1h-1V9zm2 3h-1v-1h1v1zm2 0h-1v-1h1v1zm0-2h-2V9h2v1zm0-2h-1V6h1v2z"/></svg>